<?xml version="1.0" encoding="UTF-8"?>
<svg width="19px" height="32px" viewBox="0 0 19 32" version="1.1" xmlns="http://www.w3.org/2000/svg" xmlns:xlink="http://www.w3.org/1999/xlink">
    <!-- Generator: Sketch 48.1 (47250) - http://www.bohemiancoding.com/sketch -->
    <title>bed</title>
    <desc>Created with Sketch.</desc>
    <defs></defs>
    <g id="styleguide" stroke="none" stroke-width="1" fill="none" fill-rule="evenodd" transform="translate(-1082.000000, -1550.000000)" opacity="0.5">
        <g id="rooms" transform="translate(1079.000000, 1550.000000)" fill="#414042">
            <g id="Page-1" transform="translate(3.000000, 0.000000)">
                <path d="M17.6188755,27.9603894 L12.8311376,27.9603894 C12.5138063,27.9603894 12.2566091,27.7031921 12.2566091,27.3858609 C12.2566091,27.0685296 12.5138063,26.8113323 12.8311376,26.8113323 L17.6188755,26.8113323 C17.7245888,26.8113323 17.810385,26.7253445 17.810385,26.6198228 L17.810385,1.52709688 C17.4832868,1.35320624 16.5887458,1.1490571 16.2783089,1.1490571 L1.53207613,1.1490571 C1.21474486,1.1490571 0.957547583,0.891859819 0.957547583,0.57452855 C0.957547583,0.257197281 1.21474486,0 1.53207613,0 L16.2783089,0 C16.3051202,0 18.9594421,0.184423664 18.9594421,1.34056662 L18.9594421,26.6198228 C18.9594421,27.358858 18.3579107,27.9603894 17.6188755,27.9603894" id="Fill-1"></path>
                <g id="Group-5">
                    <path d="M1.20423099,1.17186588 C1.17876023,1.20097533 1.14907625,1.25766215 1.14907625,1.34058577 L1.14907625,26.619842 C1.14907625,26.7422165 1.21380647,26.8073298 1.23429799,26.8113515 C1.29787914,26.8113515 1.36126879,26.8218845 1.42159429,26.8425675 L11.8182629,30.4270511 C11.8439252,30.3975587 11.8736092,30.3408719 11.8736092,30.2585228 L11.8736092,4.97926658 C11.8736092,4.85804106 11.8090705,4.79197027 11.788579,4.78775706 C11.7249978,4.78775706 11.6616081,4.77722404 11.6014742,4.7563495 L1.20423099,1.17186588 Z M11.7887705,31.5990894 C11.7249978,31.5990894 11.6616081,31.5885564 11.6014742,31.5678733 L1.12207341,27.9548548 C0.493922194,27.8931887 1.91509517e-05,27.3178941 1.91509517e-05,26.619842 L1.91509517e-05,1.34058577 C1.91509517e-05,0.601359033 0.553864673,1.91509517e-05 1.23429799,1.91509517e-05 C1.29807065,1.91509517e-05 1.36126879,0.0105521744 1.42159429,0.0312352021 L11.9008035,3.64425374 C12.5289547,3.70591981 13.0226663,4.28121439 13.0226663,4.97926658 L13.0226663,30.2585228 C13.0226663,30.997558 12.4690123,31.5990894 11.7887705,31.5990894 Z" id="Fill-3"></path>
                </g>
                <path d="M10.5536107,18.1773173 C10.5536107,18.88686 9.97869911,19.4611971 9.26953937,19.4611971 C8.56114567,19.4611971 7.9862341,18.88686 7.9862341,18.1773173 C7.9862341,17.4689236 8.56114567,16.8938205 9.26953937,16.8938205 C9.97869911,16.8938205 10.5536107,17.4689236 10.5536107,18.1773173" id="Fill-6"></path>
            </g>
        </g>
    </g>
</svg>