<?xml version="1.0" encoding="UTF-8"?>
<svg width="28px" height="26px" viewBox="0 0 28 26" version="1.1" xmlns="http://www.w3.org/2000/svg" xmlns:xlink="http://www.w3.org/1999/xlink">
    <!-- Generator: Sketch 48.1 (47250) - http://www.bohemiancoding.com/sketch -->
    <title>ion-checkmark - Ionicons</title>
    <desc>Created with Sketch.</desc>
    <defs></defs>
    <g id="styleguide" stroke="none" stroke-width="1" fill="none" fill-rule="evenodd" transform="translate(-992.000000, -1682.000000)">
        <path d="M1019.86538,1685.11458 C1019.95513,1685.29514 1020,1685.43056 1020,1685.52083 C1020,1685.61111 1019.95513,1685.74653 1019.86538,1685.92708 L1003.10577,1707.59375 C1002.83654,1707.86458 1002.63462,1708 1002.5,1708 C1002.27564,1708 1002.05128,1707.88715 1001.82692,1707.66146 L992.336538,1698.45312 L992.134615,1698.25 C992.044871,1698.06944 992,1697.93403 992,1697.84375 C992,1697.79861 992.044871,1697.68576 992.134615,1697.50521 L992.269231,1697.36979 C993.525647,1696.01562 994.512817,1694.97743 995.230769,1694.25521 C995.500001,1693.98437 995.679487,1693.84896 995.769231,1693.84896 C995.948719,1693.84896 996.173076,1693.98437 996.442308,1694.25521 L1001.82692,1699.53646 L1015.28846,1682.13542 C1015.37821,1682.04514 1015.51282,1682 1015.69231,1682 C1015.82692,1682 1015.98397,1682.04514 1016.16346,1682.13542 L1019.86538,1685.11458 Z" id="ion-checkmark---Ionicons" fill="#FFFFFF"></path>
    </g>
</svg>