<?xml version="1.0" encoding="UTF-8"?>
<svg width="28px" height="35px" viewBox="0 0 28 35" version="1.1" xmlns="http://www.w3.org/2000/svg" xmlns:xlink="http://www.w3.org/1999/xlink">
    <!-- Generator: Sketch 48.1 (47250) - http://www.bohemiancoding.com/sketch -->
    <title>Ghost - simple-line-icons</title>
    <desc>Created with Sketch.</desc>
    <defs></defs>
    <g id="styleguide" stroke="none" stroke-width="1" fill="none" fill-rule="evenodd" transform="translate(-990.000000, -1814.000000)">
        <path d="M1004,1814 C1005.9295,1814 1007.74118,1814.39858 1009.4351,1815.19575 C1011.12901,1815.99292 1012.60977,1817.08047 1013.8774,1818.45844 C1015.14504,1819.83641 1016.14903,1821.44781 1016.88942,1823.29269 C1017.62981,1825.13757 1018,1827.10769 1018,1829.20311 L1018,1847.89097 C1018,1848.11874 1017.93269,1848.32372 1017.79808,1848.50593 C1017.66346,1848.68814 1017.49519,1848.8248 1017.29327,1848.9159 C1017.09135,1849.00701 1016.87821,1849.02409 1016.65385,1848.96715 C1016.42949,1848.91021 1016.25,1848.79063 1016.11538,1848.60842 L1012.14423,1844.09874 L1008.91346,1848.5401 C1008.82372,1848.67675 1008.70032,1848.78494 1008.54327,1848.86466 C1008.38622,1848.94437 1008.21795,1848.98423 1008.03846,1848.98423 C1007.88141,1848.98423 1007.72436,1848.94437 1007.56731,1848.86466 C1007.41026,1848.78494 1007.28686,1848.67675 1007.19712,1848.5401 L1004.03365,1844.20123 L1000.87019,1848.5401 C1000.75801,1848.67675 1000.62901,1848.78494 1000.48317,1848.86466 C1000.33734,1848.94437 1000.17468,1848.98423 999.995192,1848.98423 C999.815704,1848.98423 999.653046,1848.94437 999.507212,1848.86466 C999.361377,1848.78494 999.232372,1848.67675 999.120192,1848.5401 L995.956731,1844.06457 L991.884615,1848.64259 C991.772435,1848.75647 991.649039,1848.84188 991.514423,1848.89882 C991.379807,1848.95576 991.233975,1848.98423 991.076923,1848.98423 C991.009615,1848.98423 990.947917,1848.97854 990.891827,1848.96715 C990.835737,1848.95576 990.774039,1848.93868 990.706731,1848.9159 C990.504807,1848.8248 990.336539,1848.68814 990.201923,1848.50593 C990.067307,1848.32372 990,1848.11874 990,1847.89097 L990,1829.20311 C990,1827.10769 990.370189,1825.13757 991.110577,1823.29269 C991.850965,1821.44781 992.854962,1819.83641 994.122596,1818.45844 C995.390231,1817.08047 996.870985,1815.99292 998.564904,1815.19575 C1000.25882,1814.39858 1002.0705,1814 1004,1814 Z M1015.84615,1845.02117 L1015.84615,1829.20311 C1015.84615,1827.42656 1015.53205,1825.74683 1014.90385,1824.16388 C1014.27564,1822.58092 1013.42869,1821.19728 1012.36298,1820.01291 C1011.29727,1818.82855 1010.04648,1817.89473 1008.61058,1817.21144 C1007.17467,1816.52815 1005.63783,1816.18651 1004,1816.18651 C1002.36217,1816.18651 1000.82533,1816.52815 999.389423,1817.21144 C997.953518,1817.89473 996.70273,1818.82855 995.637019,1820.01291 C994.571309,1821.19728 993.724362,1822.58092 993.096154,1824.16388 C992.467946,1825.74683 992.153846,1827.42656 992.153846,1829.20311 L992.153846,1845.05534 L995.25,1841.60475 C995.339744,1841.49086 995.457531,1841.40545 995.603365,1841.34851 C995.749199,1841.29157 995.889422,1841.2631 996.024038,1841.2631 L996.091346,1841.2631 C996.248398,1841.2631 996.399839,1841.30296 996.545673,1841.38268 C996.691507,1841.46239 996.809294,1841.57058 996.899038,1841.70724 L999.995192,1846.0461 L1003.19231,1841.70724 C1003.28205,1841.57058 1003.40545,1841.46239 1003.5625,1841.38268 C1003.71955,1841.30296 1003.88782,1841.2631 1004.06731,1841.2631 C1004.22436,1841.2631 1004.38141,1841.30296 1004.53846,1841.38268 C1004.69551,1841.46239 1004.81891,1841.57058 1004.90865,1841.70724 L1008.03846,1846.0461 L1011.20192,1841.70724 C1011.29167,1841.57058 1011.40945,1841.46239 1011.55529,1841.38268 C1011.70112,1841.30296 1011.85256,1841.2631 1012.00962,1841.2631 C1012.16667,1841.2631 1012.31811,1841.29157 1012.46394,1841.34851 C1012.60978,1841.40545 1012.73878,1841.50225 1012.85096,1841.63891 L1015.84615,1845.02117 Z M1009.38462,1826.02583 C1009.96795,1826.02583 1010.47275,1826.2422 1010.89904,1826.67495 C1011.32532,1827.1077 1011.53846,1827.62016 1011.53846,1828.21234 C1011.53846,1828.80453 1011.32532,1829.31699 1010.89904,1829.74974 C1010.47275,1830.18249 1009.96795,1830.39886 1009.38462,1830.39886 C1008.80128,1830.39886 1008.29648,1830.18249 1007.87019,1829.74974 C1007.44391,1829.31699 1007.23077,1828.80453 1007.23077,1828.21234 C1007.23077,1827.62016 1007.44391,1827.1077 1007.87019,1826.67495 C1008.29648,1826.2422 1008.80128,1826.02583 1009.38462,1826.02583 Z M998.615385,1826.02583 C999.198721,1826.02583 999.703524,1826.2422 1000.12981,1826.67495 C1000.55609,1827.1077 1000.76923,1827.62016 1000.76923,1828.21234 C1000.76923,1828.80453 1000.55609,1829.31699 1000.12981,1829.74974 C999.703524,1830.18249 999.198721,1830.39886 998.615385,1830.39886 C998.032048,1830.39886 997.527246,1830.18249 997.100962,1829.74974 C996.674677,1829.31699 996.461538,1828.80453 996.461538,1828.21234 C996.461538,1827.62016 996.674677,1827.1077 997.100962,1826.67495 C997.527246,1826.2422 998.032048,1826.02583 998.615385,1826.02583 Z" id="Ghost---simple-line-icons" fill="#FFFFFF"></path>
    </g>
</svg>