<?xml version="1.0" encoding="UTF-8"?>
<svg width="30px" height="30px" viewBox="0 0 30 30" version="1.1" xmlns="http://www.w3.org/2000/svg" xmlns:xlink="http://www.w3.org/1999/xlink">
    <!-- Generator: Sketch 48.1 (47250) - http://www.bohemiancoding.com/sketch -->
    <title>rent</title>
    <desc>Created with Sketch.</desc>
    <defs></defs>
    <g id="styleguide" stroke="none" stroke-width="1" fill="none" fill-rule="evenodd" transform="translate(-1192.000000, -1547.000000)" opacity="0.5">
        <g id="rent" transform="translate(1192.000000, 1547.000000)" fill="#424242">
            <path d="M21.1105556,12.0863309 C16.0783333,12.0863309 13.3333333,10.7556835 13.3333333,10.072518 L13.3333333,8.23136691 C14.9327778,9.25467626 18.0327778,9.78417266 21.1105556,9.78417266 C24.1888889,9.78417266 27.2894444,9.25467626 28.8888889,8.23136691 L28.8888889,10.072518 C28.8888889,10.7556835 26.1438889,12.0863309 21.1105556,12.0863309 Z M21.1105556,1.15107914 C26.1438889,1.15107914 28.8888889,2.48230216 28.8888889,3.16604317 C28.8888889,3.84920863 26.1438889,5.17985612 21.1105556,5.17985612 C16.0783333,5.17985612 13.3333333,3.84920863 13.3333333,3.16604317 C13.3333333,2.48230216 16.0783333,1.15107914 21.1105556,1.15107914 Z M28.8888889,6.61928058 C28.8888889,7.30244604 26.1438889,8.63309353 21.1105556,8.63309353 C16.0783333,8.63309353 13.3333333,7.30244604 13.3333333,6.61928058 L13.3333333,4.7781295 C14.9327778,5.80143885 18.0327778,6.33093525 21.1105556,6.33093525 C24.1888889,6.33093525 27.2894444,5.80143885 28.8888889,4.7781295 L28.8888889,6.61928058 Z M16.6666667,16.4034532 C16.6666667,17.0866187 13.9216667,18.4172662 8.88833333,18.4172662 C3.85611111,18.4172662 1.11111111,17.0866187 1.11111111,16.4034532 C1.11111111,15.7191367 3.85611111,14.3884892 8.88833333,14.3884892 C13.9216667,14.3884892 16.6666667,15.7191367 16.6666667,16.4034532 Z M8.88833333,28.8489209 C4.06333333,28.8489209 1.11111111,27.4981295 1.11111111,26.7631655 L1.11111111,24.9220144 C2.71055556,25.9453237 5.81055556,26.4748201 8.88833333,26.4748201 C11.9666667,26.4748201 15.0672222,25.9453237 16.6666667,24.9220144 L16.6666667,26.9064748 C16.6666667,27.5844604 13.995,28.8489209 8.88833333,28.8489209 Z M16.6666667,19.8566906 C16.6666667,20.5398561 13.9216667,21.8705036 8.88833333,21.8705036 C3.85611111,21.8705036 1.11111111,20.5398561 1.11111111,19.8566906 L1.11111111,18.0155396 C2.71055556,19.0388489 5.81055556,19.5683453 8.88833333,19.5683453 C11.9666667,19.5683453 15.0672222,19.0388489 16.6666667,18.0155396 L16.6666667,19.8566906 Z M16.6666667,23.3099281 C16.6666667,23.9930935 13.9216667,25.323741 8.88833333,25.323741 C3.85611111,25.323741 1.11111111,23.9930935 1.11111111,23.3099281 L1.11111111,21.468777 C2.71055556,22.4920863 5.81055556,23.0215827 8.88833333,23.0215827 C11.9666667,23.0215827 15.0672222,22.4920863 16.6666667,21.468777 L16.6666667,23.3099281 Z M30,3.16604317 C30,1.08776978 25.5277778,0 21.1105556,0 C16.6938889,0 12.2222222,1.08776978 12.2222222,3.16604317 C12.2222222,3.22417266 12.2383333,3.27827338 12.245,3.3352518 C12.2366667,3.37438849 12.2222222,3.41179856 12.2222222,3.45323741 L12.2222222,13.4520863 C11.1577778,13.3105036 10.0216667,13.2374101 8.88833333,13.2374101 C5.01166667,13.2374101 1.095,14.0753957 0.194444444,15.6857554 C0.0777777778,15.7910791 0,15.9418705 0,16.1151079 L0,26.7631655 C0,28.8656115 4.57944444,30 8.88833333,30 C13.17,30 17.7777778,29.0319424 17.7777778,26.9064748 L17.7777778,16.1151079 C17.7777778,15.9418705 17.7,15.7910791 17.5833333,15.6857554 C17.0405556,14.7153957 15.3988889,14.0282014 13.3333333,13.6333813 L13.3333333,11.6846043 C14.9327778,12.7079137 18.0327778,13.2374101 21.1105556,13.2374101 C24.1888889,13.2374101 27.2894444,12.7079137 28.8888889,11.6846043 L28.8888889,13.5257554 C28.8888889,14.2089209 26.1438889,15.5395683 21.1105556,15.5395683 C20.4111111,15.5395683 19.7144444,15.5119424 19.0411111,15.4572662 C18.73,15.4330935 18.4677778,15.6702158 18.4438889,15.9861871 C18.42,16.3033094 18.6488889,16.5807194 18.9544444,16.6054676 C19.6572222,16.6618705 20.3822222,16.6906475 21.1105556,16.6906475 C24.1888889,16.6906475 27.2894444,16.1611511 28.8888889,15.1378417 L28.8888889,16.9789928 C28.8888889,17.6621583 26.1438889,18.9928058 21.1105556,18.9928058 C20.4433333,18.9928058 19.7822222,18.9680576 19.1472222,18.9191367 C18.8288889,18.8915108 18.575,19.1338129 18.5522222,19.4503597 C18.5294444,19.767482 18.7588889,20.0431655 19.0644444,20.0667626 C19.7277778,20.1179856 20.4155556,20.1438849 21.1105556,20.1438849 C24.1888889,20.1438849 27.2894444,19.6143885 28.8888889,18.5910791 L28.8888889,20.5755396 C28.8888889,21.2535252 26.2172222,22.5179856 21.1105556,22.5179856 C20.4538889,22.5179856 19.7977778,22.4920863 19.16,22.4408633 C18.8461111,22.4166906 18.5872222,22.6538129 18.5633333,22.9703597 C18.5394444,23.287482 18.7683333,23.563741 19.0744444,23.5884892 C19.7405556,23.6420144 20.4255556,23.6690647 21.1105556,23.6690647 C25.3922222,23.6690647 30,22.7010072 30,20.5755396 L30,3.45323741 C30,3.41179856 29.9855556,3.37438849 29.9772222,3.3352518 C29.9838889,3.27827338 30,3.22417266 30,3.16604317 Z" id="Page-1"></path>
        </g>
    </g>
</svg>