<?xml version="1.0" encoding="UTF-8"?>
<svg width="36px" height="24px" viewBox="0 0 36 24" version="1.1" xmlns="http://www.w3.org/2000/svg" xmlns:xlink="http://www.w3.org/1999/xlink">
    <!-- Generator: Sketch 48.1 (47250) - http://www.bohemiancoding.com/sketch -->
    <title>ruler</title>
    <desc>Created with Sketch.</desc>
    <defs></defs>
    <g id="styleguide" stroke="none" stroke-width="1" fill="none" fill-rule="evenodd" transform="translate(-1129.000000, -1553.000000)" opacity="0.5">
        <g id="squarefeet" transform="translate(1129.000000, 1553.000000)" fill="#414042">
            <g id="Page-1">
                <path d="M23.613518,18.8908144 C19.7066615,18.8908144 16.5294626,15.7136156 16.5294626,11.806759 C16.5294626,7.89990245 19.7066615,4.7227036 23.613518,4.7227036 C27.5203746,4.7227036 30.6975734,7.89990245 30.6975734,11.806759 C30.6975734,15.7136156 27.5203746,18.8908144 23.613518,18.8908144 M23.613518,3.5420277 C19.0572897,3.5420277 15.3487867,7.24935003 15.3487867,11.806759 C15.3487867,16.3629873 19.0572897,20.0714903 23.613518,20.0714903 C28.1697463,20.0714903 31.8782493,16.3629873 31.8782493,11.806759 C31.8782493,7.24935003 28.1697463,3.5420277 23.613518,3.5420277" id="Fill-1"></path>
                <path d="M34.2396011,17.1198006 C34.2396011,20.0490575 31.8558165,22.4328421 28.9265596,22.4328421 L12.9874349,22.4328421 L12.9874349,17.1198006 L12.9874349,6.49371746 C12.9874349,3.56446055 15.3712196,1.1806759 18.3004765,1.1806759 L28.9265596,1.1806759 C31.8558165,1.1806759 34.2396011,3.56446055 34.2396011,6.49371746 L34.2396011,17.1198006 Z M1.1806759,17.7101385 L11.806759,17.7101385 L11.806759,22.4328421 L10.6260831,22.4328421 L10.6260831,20.6618283 C10.6260831,20.3359617 10.3616117,20.0714903 10.0357452,20.0714903 C9.70987861,20.0714903 9.44540721,20.3359617 9.44540721,20.6618283 L9.44540721,22.4328421 L8.26473131,22.4328421 L8.26473131,20.6618283 C8.26473131,20.3359617 8.0002599,20.0714903 7.67439336,20.0714903 C7.34852681,20.0714903 7.08405541,20.3359617 7.08405541,20.6618283 L7.08405541,22.4328421 L5.9033795,22.4328421 L5.9033795,20.6618283 C5.9033795,20.3359617 5.6389081,20.0714903 5.31304155,20.0714903 C4.98717501,20.0714903 4.7227036,20.3359617 4.7227036,20.6618283 L4.7227036,22.4328421 L3.5420277,22.4328421 L3.5420277,20.6618283 C3.5420277,20.3359617 3.2775563,20.0714903 2.95168975,20.0714903 C2.6258232,20.0714903 2.3613518,20.3359617 2.3613518,20.6618283 L2.3613518,22.4328421 L1.1806759,22.4328421 L1.1806759,17.7101385 Z M28.9265596,0 L18.3004765,0 C14.7194865,0 11.806759,2.91272745 11.806759,6.49371746 L11.806759,16.5294626 L0.59033795,16.5294626 C0.264471402,16.5294626 0,16.793934 0,17.1198006 L0,23.0231801 C0,23.3490466 0.264471402,23.613518 0.59033795,23.613518 L12.397097,23.613518 L28.9265596,23.613518 C32.5063689,23.613518 35.420277,20.6996099 35.420277,17.1198006 L35.420277,6.49371746 C35.420277,2.91272745 32.5063689,0 28.9265596,0 Z" id="Fill-3"></path>
            </g>
        </g>
    </g>
</svg>